<mxfile host="app.diagrams.net" agent="Mozilla/5.0 (Windows NT 10.0; Win64; x64) AppleWebKit/537.36 (KHTML, like Gecko) Chrome/141.0.0.0 Safari/537.36" version="28.2.8">
  <diagram name="Page-1" id="ahRIieM8a_Ku20eRFsSm">
    <mxGraphModel grid="1" page="1" gridSize="10" guides="1" tooltips="1" connect="1" arrows="1" fold="1" pageScale="1" pageWidth="827" pageHeight="1169" math="0" shadow="0">
      <root>
        <mxCell id="0" />
        <mxCell id="1" parent="0" />
        <mxCell id="ng9pLKK-hDi_yAEwPg4K-1" value="" style="rounded=0;whiteSpace=wrap;html=1;fillColor=none;dashed=1;" vertex="1" parent="1">
          <mxGeometry x="158" y="290" width="180" height="500" as="geometry" />
        </mxCell>
        <mxCell id="ng9pLKK-hDi_yAEwPg4K-2" value="&lt;font style=&quot;font-size: 24px;&quot;&gt;Souces&lt;/font&gt;" style="rounded=1;whiteSpace=wrap;html=1;strokeColor=none;" vertex="1" parent="1">
          <mxGeometry x="188" y="260" width="120" height="50" as="geometry" />
        </mxCell>
        <mxCell id="ng9pLKK-hDi_yAEwPg4K-15" style="edgeStyle=orthogonalEdgeStyle;rounded=0;orthogonalLoop=1;jettySize=auto;html=1;entryX=0;entryY=0.5;entryDx=0;entryDy=0;" edge="1" parent="1" source="ng9pLKK-hDi_yAEwPg4K-3" target="ng9pLKK-hDi_yAEwPg4K-14">
          <mxGeometry relative="1" as="geometry" />
        </mxCell>
        <mxCell id="ng9pLKK-hDi_yAEwPg4K-16" style="edgeStyle=orthogonalEdgeStyle;rounded=0;orthogonalLoop=1;jettySize=auto;html=1;entryX=0;entryY=0.5;entryDx=0;entryDy=0;" edge="1" parent="1" source="ng9pLKK-hDi_yAEwPg4K-3" target="ng9pLKK-hDi_yAEwPg4K-10">
          <mxGeometry relative="1" as="geometry" />
        </mxCell>
        <mxCell id="ng9pLKK-hDi_yAEwPg4K-17" style="edgeStyle=orthogonalEdgeStyle;rounded=0;orthogonalLoop=1;jettySize=auto;html=1;entryX=0;entryY=0.5;entryDx=0;entryDy=0;" edge="1" parent="1" source="ng9pLKK-hDi_yAEwPg4K-3" target="ng9pLKK-hDi_yAEwPg4K-13">
          <mxGeometry relative="1" as="geometry" />
        </mxCell>
        <mxCell id="ng9pLKK-hDi_yAEwPg4K-3" value="&lt;span style=&quot;font-size: 20px;&quot;&gt;&lt;b&gt;CRM&lt;/b&gt;&lt;/span&gt;" style="image;aspect=fixed;html=1;points=[];align=center;fontSize=12;image=img/lib/azure2/general/Folder_Blank.svg;" vertex="1" parent="1">
          <mxGeometry x="213.5" y="446" width="69" height="56.00000000000001" as="geometry" />
        </mxCell>
        <mxCell id="ng9pLKK-hDi_yAEwPg4K-7" value="" style="rounded=1;whiteSpace=wrap;html=1;fillColor=none;fillStyle=auto;strokeColor=light-dark(#000000,#000000);" vertex="1" parent="1">
          <mxGeometry x="468" y="350" width="200" height="440" as="geometry" />
        </mxCell>
        <mxCell id="ng9pLKK-hDi_yAEwPg4K-9" value="&lt;font style=&quot;font-size: 20px;&quot;&gt;&lt;b&gt;Bronze Layer&lt;/b&gt;&lt;/font&gt;" style="rounded=1;whiteSpace=wrap;html=1;fillColor=#f8cecc;fillStyle=auto;strokeColor=light-dark(#A0522D,#A0522D);" vertex="1" parent="1">
          <mxGeometry x="468" y="280" width="200" height="60" as="geometry" />
        </mxCell>
        <mxCell id="dvc6mWxqZKtWdNYs8Fx3-9" style="edgeStyle=orthogonalEdgeStyle;rounded=0;orthogonalLoop=1;jettySize=auto;html=1;entryX=0;entryY=0.5;entryDx=0;entryDy=0;" edge="1" parent="1" source="ng9pLKK-hDi_yAEwPg4K-10" target="dvc6mWxqZKtWdNYs8Fx3-3">
          <mxGeometry relative="1" as="geometry" />
        </mxCell>
        <mxCell id="ng9pLKK-hDi_yAEwPg4K-10" value="&lt;font style=&quot;font-size: 16px;&quot;&gt;crm_cust_info&lt;/font&gt;" style="rounded=1;whiteSpace=wrap;html=1;fillColor=#f8cecc;fillStyle=auto;strokeColor=light-dark(#A0522D,#A0522D);" vertex="1" parent="1">
          <mxGeometry x="478" y="406" width="180" height="40" as="geometry" />
        </mxCell>
        <mxCell id="dvc6mWxqZKtWdNYs8Fx3-11" style="edgeStyle=orthogonalEdgeStyle;rounded=0;orthogonalLoop=1;jettySize=auto;html=1;entryX=0;entryY=0.5;entryDx=0;entryDy=0;" edge="1" parent="1" source="ng9pLKK-hDi_yAEwPg4K-13" target="dvc6mWxqZKtWdNYs8Fx3-4">
          <mxGeometry relative="1" as="geometry" />
        </mxCell>
        <mxCell id="ng9pLKK-hDi_yAEwPg4K-13" value="&lt;font style=&quot;font-size: 16px;&quot;&gt;crm_sales_details&lt;/font&gt;" style="rounded=1;whiteSpace=wrap;html=1;fillColor=#f8cecc;fillStyle=auto;strokeColor=light-dark(#A0522D,#A0522D);" vertex="1" parent="1">
          <mxGeometry x="478" y="502" width="180" height="40" as="geometry" />
        </mxCell>
        <mxCell id="dvc6mWxqZKtWdNYs8Fx3-10" style="edgeStyle=orthogonalEdgeStyle;rounded=0;orthogonalLoop=1;jettySize=auto;html=1;entryX=0;entryY=0.5;entryDx=0;entryDy=0;" edge="1" parent="1" source="ng9pLKK-hDi_yAEwPg4K-14" target="dvc6mWxqZKtWdNYs8Fx3-5">
          <mxGeometry relative="1" as="geometry" />
        </mxCell>
        <mxCell id="ng9pLKK-hDi_yAEwPg4K-14" value="&lt;font style=&quot;font-size: 16px;&quot;&gt;crm_prod_info&lt;/font&gt;" style="rounded=1;whiteSpace=wrap;html=1;fillColor=#f8cecc;fillStyle=auto;strokeColor=light-dark(#A0522D,#A0522D);" vertex="1" parent="1">
          <mxGeometry x="478" y="454" width="180" height="40" as="geometry" />
        </mxCell>
        <mxCell id="ng9pLKK-hDi_yAEwPg4K-24" style="edgeStyle=orthogonalEdgeStyle;rounded=0;orthogonalLoop=1;jettySize=auto;html=1;entryX=0;entryY=0.5;entryDx=0;entryDy=0;" edge="1" parent="1" source="ng9pLKK-hDi_yAEwPg4K-27" target="ng9pLKK-hDi_yAEwPg4K-30">
          <mxGeometry relative="1" as="geometry" />
        </mxCell>
        <mxCell id="ng9pLKK-hDi_yAEwPg4K-25" style="edgeStyle=orthogonalEdgeStyle;rounded=0;orthogonalLoop=1;jettySize=auto;html=1;entryX=0;entryY=0.5;entryDx=0;entryDy=0;" edge="1" parent="1" source="ng9pLKK-hDi_yAEwPg4K-27" target="ng9pLKK-hDi_yAEwPg4K-28">
          <mxGeometry relative="1" as="geometry" />
        </mxCell>
        <mxCell id="ng9pLKK-hDi_yAEwPg4K-26" style="edgeStyle=orthogonalEdgeStyle;rounded=0;orthogonalLoop=1;jettySize=auto;html=1;entryX=0;entryY=0.5;entryDx=0;entryDy=0;" edge="1" parent="1" source="ng9pLKK-hDi_yAEwPg4K-27" target="ng9pLKK-hDi_yAEwPg4K-29">
          <mxGeometry relative="1" as="geometry" />
        </mxCell>
        <mxCell id="ng9pLKK-hDi_yAEwPg4K-27" value="&lt;span style=&quot;font-size: 20px;&quot;&gt;&lt;b&gt;ERP&lt;/b&gt;&lt;/span&gt;" style="image;aspect=fixed;html=1;points=[];align=center;fontSize=12;image=img/lib/azure2/general/Folder_Blank.svg;" vertex="1" parent="1">
          <mxGeometry x="213.5" y="610" width="69" height="56.00000000000001" as="geometry" />
        </mxCell>
        <mxCell id="dvc6mWxqZKtWdNYs8Fx3-12" style="edgeStyle=orthogonalEdgeStyle;rounded=0;orthogonalLoop=1;jettySize=auto;html=1;entryX=0;entryY=0.5;entryDx=0;entryDy=0;" edge="1" parent="1" source="ng9pLKK-hDi_yAEwPg4K-28" target="dvc6mWxqZKtWdNYs8Fx3-6">
          <mxGeometry relative="1" as="geometry" />
        </mxCell>
        <mxCell id="ng9pLKK-hDi_yAEwPg4K-28" value="&lt;span style=&quot;font-size: 16px;&quot;&gt;erp_cust_az12&lt;/span&gt;" style="rounded=1;whiteSpace=wrap;html=1;fillColor=#f8cecc;fillStyle=auto;strokeColor=light-dark(#A0522D,#A0522D);" vertex="1" parent="1">
          <mxGeometry x="478" y="570" width="180" height="40" as="geometry" />
        </mxCell>
        <mxCell id="dvc6mWxqZKtWdNYs8Fx3-14" style="edgeStyle=orthogonalEdgeStyle;rounded=0;orthogonalLoop=1;jettySize=auto;html=1;entryX=0;entryY=0.5;entryDx=0;entryDy=0;" edge="1" parent="1" source="ng9pLKK-hDi_yAEwPg4K-29" target="dvc6mWxqZKtWdNYs8Fx3-7">
          <mxGeometry relative="1" as="geometry" />
        </mxCell>
        <mxCell id="ng9pLKK-hDi_yAEwPg4K-29" value="&lt;span style=&quot;font-size: 16px;&quot;&gt;erp_px_cat_g1v2&lt;/span&gt;" style="rounded=1;whiteSpace=wrap;html=1;fillColor=#f8cecc;fillStyle=auto;strokeColor=light-dark(#A0522D,#A0522D);" vertex="1" parent="1">
          <mxGeometry x="478" y="666" width="180" height="40" as="geometry" />
        </mxCell>
        <mxCell id="dvc6mWxqZKtWdNYs8Fx3-13" style="edgeStyle=orthogonalEdgeStyle;rounded=0;orthogonalLoop=1;jettySize=auto;html=1;" edge="1" parent="1" source="ng9pLKK-hDi_yAEwPg4K-30" target="dvc6mWxqZKtWdNYs8Fx3-8">
          <mxGeometry relative="1" as="geometry" />
        </mxCell>
        <mxCell id="ng9pLKK-hDi_yAEwPg4K-30" value="&lt;span style=&quot;font-size: 16px;&quot;&gt;erp_loc_a101&lt;/span&gt;" style="rounded=1;whiteSpace=wrap;html=1;fillColor=#f8cecc;fillStyle=auto;strokeColor=light-dark(#A0522D,#A0522D);" vertex="1" parent="1">
          <mxGeometry x="478" y="618" width="180" height="40" as="geometry" />
        </mxCell>
        <mxCell id="ng9pLKK-hDi_yAEwPg4K-32" value="" style="rounded=0;whiteSpace=wrap;html=1;fillColor=none;" vertex="1" parent="1">
          <mxGeometry x="130" y="202" width="1140" height="640" as="geometry" />
        </mxCell>
        <mxCell id="dvc6mWxqZKtWdNYs8Fx3-1" value="" style="rounded=1;whiteSpace=wrap;html=1;fillColor=none;fillStyle=auto;strokeColor=light-dark(#000000,#000000);" vertex="1" parent="1">
          <mxGeometry x="740" y="350" width="200" height="440" as="geometry" />
        </mxCell>
        <mxCell id="dvc6mWxqZKtWdNYs8Fx3-2" value="&lt;span style=&quot;font-size: 20px;&quot;&gt;&lt;b&gt;Silver Layer&lt;/b&gt;&lt;/span&gt;" style="rounded=1;whiteSpace=wrap;html=1;fillColor=light-dark(#B3B3B3,#B3B3B3);fillStyle=auto;strokeColor=#666666;gradientColor=#b3b3b3;" vertex="1" parent="1">
          <mxGeometry x="740" y="280" width="200" height="60" as="geometry" />
        </mxCell>
        <mxCell id="dvc6mWxqZKtWdNYs8Fx3-24" style="edgeStyle=orthogonalEdgeStyle;rounded=0;orthogonalLoop=1;jettySize=auto;html=1;entryX=0;entryY=0.5;entryDx=0;entryDy=0;jumpStyle=sharp;" edge="1" parent="1" source="dvc6mWxqZKtWdNYs8Fx3-3" target="dvc6mWxqZKtWdNYs8Fx3-20">
          <mxGeometry relative="1" as="geometry" />
        </mxCell>
        <mxCell id="dvc6mWxqZKtWdNYs8Fx3-3" value="&lt;font style=&quot;font-size: 16px;&quot;&gt;crm_cust_info&lt;/font&gt;" style="rounded=1;whiteSpace=wrap;html=1;fillColor=light-dark(#B3B3B3,#B3B3B3);fillStyle=auto;strokeColor=#666666;gradientColor=#b3b3b3;" vertex="1" parent="1">
          <mxGeometry x="750" y="406" width="180" height="40" as="geometry" />
        </mxCell>
        <mxCell id="dvc6mWxqZKtWdNYs8Fx3-26" style="edgeStyle=orthogonalEdgeStyle;rounded=0;orthogonalLoop=1;jettySize=auto;html=1;entryX=0;entryY=0.5;entryDx=0;entryDy=0;jumpStyle=sharp;" edge="1" parent="1" source="dvc6mWxqZKtWdNYs8Fx3-4" target="dvc6mWxqZKtWdNYs8Fx3-18">
          <mxGeometry relative="1" as="geometry" />
        </mxCell>
        <mxCell id="dvc6mWxqZKtWdNYs8Fx3-4" value="&lt;font style=&quot;font-size: 16px;&quot;&gt;crm_sales_details&lt;/font&gt;" style="rounded=1;whiteSpace=wrap;html=1;fillColor=light-dark(#B3B3B3,#B3B3B3);fillStyle=auto;strokeColor=#666666;gradientColor=#b3b3b3;" vertex="1" parent="1">
          <mxGeometry x="750" y="502" width="180" height="40" as="geometry" />
        </mxCell>
        <mxCell id="dvc6mWxqZKtWdNYs8Fx3-25" style="edgeStyle=orthogonalEdgeStyle;rounded=0;orthogonalLoop=1;jettySize=auto;html=1;entryX=0;entryY=0.5;entryDx=0;entryDy=0;jumpStyle=sharp;" edge="1" parent="1" source="dvc6mWxqZKtWdNYs8Fx3-5" target="dvc6mWxqZKtWdNYs8Fx3-19">
          <mxGeometry relative="1" as="geometry">
            <Array as="points">
              <mxPoint x="960" y="474" />
              <mxPoint x="960" y="660" />
            </Array>
          </mxGeometry>
        </mxCell>
        <mxCell id="dvc6mWxqZKtWdNYs8Fx3-5" value="&lt;font style=&quot;font-size: 16px;&quot;&gt;crm_prod_info&lt;/font&gt;" style="rounded=1;whiteSpace=wrap;html=1;fillColor=light-dark(#B3B3B3,#B3B3B3);fillStyle=auto;strokeColor=#666666;gradientColor=#b3b3b3;" vertex="1" parent="1">
          <mxGeometry x="750" y="454" width="180" height="40" as="geometry" />
        </mxCell>
        <mxCell id="dvc6mWxqZKtWdNYs8Fx3-27" style="edgeStyle=orthogonalEdgeStyle;rounded=0;orthogonalLoop=1;jettySize=auto;html=1;entryX=0;entryY=0.25;entryDx=0;entryDy=0;jumpStyle=sharp;" edge="1" parent="1" source="dvc6mWxqZKtWdNYs8Fx3-6" target="dvc6mWxqZKtWdNYs8Fx3-20">
          <mxGeometry relative="1" as="geometry">
            <Array as="points">
              <mxPoint x="990" y="590" />
              <mxPoint x="990" y="416" />
            </Array>
          </mxGeometry>
        </mxCell>
        <mxCell id="dvc6mWxqZKtWdNYs8Fx3-6" value="&lt;span style=&quot;font-size: 16px;&quot;&gt;erp_cust_az12&lt;/span&gt;" style="rounded=1;whiteSpace=wrap;html=1;fillColor=light-dark(#B3B3B3,#B3B3B3);fillStyle=auto;strokeColor=#666666;gradientColor=#b3b3b3;" vertex="1" parent="1">
          <mxGeometry x="750" y="570" width="180" height="40" as="geometry" />
        </mxCell>
        <mxCell id="dvc6mWxqZKtWdNYs8Fx3-29" style="edgeStyle=orthogonalEdgeStyle;rounded=0;orthogonalLoop=1;jettySize=auto;html=1;entryX=0;entryY=0.75;entryDx=0;entryDy=0;jumpStyle=sharp;" edge="1" parent="1" source="dvc6mWxqZKtWdNYs8Fx3-7" target="dvc6mWxqZKtWdNYs8Fx3-19">
          <mxGeometry relative="1" as="geometry">
            <Array as="points">
              <mxPoint x="1010" y="686" />
              <mxPoint x="1010" y="670" />
            </Array>
          </mxGeometry>
        </mxCell>
        <mxCell id="dvc6mWxqZKtWdNYs8Fx3-7" value="&lt;span style=&quot;font-size: 16px;&quot;&gt;erp_px_cat_g1v2&lt;/span&gt;" style="rounded=1;whiteSpace=wrap;html=1;fillColor=light-dark(#B3B3B3,#B3B3B3);fillStyle=auto;strokeColor=#666666;gradientColor=#b3b3b3;" vertex="1" parent="1">
          <mxGeometry x="750" y="666" width="180" height="40" as="geometry" />
        </mxCell>
        <mxCell id="dvc6mWxqZKtWdNYs8Fx3-8" value="&lt;span style=&quot;font-size: 16px;&quot;&gt;erp_loc_a101&lt;/span&gt;" style="rounded=1;whiteSpace=wrap;html=1;fillColor=light-dark(#B3B3B3,#B3B3B3);fillStyle=auto;strokeColor=#666666;gradientColor=#b3b3b3;" vertex="1" parent="1">
          <mxGeometry x="750" y="618" width="180" height="40" as="geometry" />
        </mxCell>
        <mxCell id="dvc6mWxqZKtWdNYs8Fx3-16" value="" style="rounded=1;whiteSpace=wrap;html=1;fillColor=none;fillStyle=auto;strokeColor=#d79b00;gradientColor=#ffa500;" vertex="1" parent="1">
          <mxGeometry x="1030" y="350" width="200" height="440" as="geometry" />
        </mxCell>
        <mxCell id="dvc6mWxqZKtWdNYs8Fx3-17" value="&lt;span style=&quot;font-size: 20px;&quot;&gt;&lt;b&gt;Gold Layer&lt;/b&gt;&lt;/span&gt;" style="rounded=1;whiteSpace=wrap;html=1;fillColor=#ffcd28;fillStyle=auto;strokeColor=#d79b00;gradientColor=#ffa500;" vertex="1" parent="1">
          <mxGeometry x="1030" y="280" width="200" height="60" as="geometry" />
        </mxCell>
        <mxCell id="dvc6mWxqZKtWdNYs8Fx3-18" value="&lt;span style=&quot;font-size: 16px;&quot;&gt;fact_sales&lt;/span&gt;" style="rounded=1;whiteSpace=wrap;html=1;fillColor=#ffcd28;fillStyle=auto;strokeColor=#d79b00;gradientColor=#ffa500;" vertex="1" parent="1">
          <mxGeometry x="1040" y="530" width="180" height="40" as="geometry" />
        </mxCell>
        <mxCell id="dvc6mWxqZKtWdNYs8Fx3-19" value="&lt;span style=&quot;font-size: 16px;&quot;&gt;dim_products&lt;/span&gt;" style="rounded=1;whiteSpace=wrap;html=1;fillColor=#ffcd28;fillStyle=auto;strokeColor=#d79b00;gradientColor=#ffa500;" vertex="1" parent="1">
          <mxGeometry x="1040" y="640" width="180" height="40" as="geometry" />
        </mxCell>
        <mxCell id="dvc6mWxqZKtWdNYs8Fx3-20" value="&lt;span style=&quot;font-size: 16px;&quot;&gt;dim_customers&lt;/span&gt;" style="rounded=1;whiteSpace=wrap;html=1;fillColor=#ffcd28;fillStyle=auto;strokeColor=#d79b00;gradientColor=#ffa500;" vertex="1" parent="1">
          <mxGeometry x="1040" y="406" width="180" height="40" as="geometry" />
        </mxCell>
        <mxCell id="dvc6mWxqZKtWdNYs8Fx3-28" style="edgeStyle=orthogonalEdgeStyle;rounded=0;orthogonalLoop=1;jettySize=auto;html=1;jumpStyle=sharp;" edge="1" parent="1" target="dvc6mWxqZKtWdNYs8Fx3-20">
          <mxGeometry relative="1" as="geometry">
            <mxPoint x="930" y="639.9988235294118" as="sourcePoint" />
            <mxPoint x="1054.4" y="410.4600000000002" as="targetPoint" />
            <Array as="points">
              <mxPoint x="1010" y="640" />
              <mxPoint x="1010" y="440" />
            </Array>
          </mxGeometry>
        </mxCell>
      </root>
    </mxGraphModel>
  </diagram>
</mxfile>
